{
  "asset": {
    "generator": "Khronos glTF Blender I/O v5.0.21",
    "version": "2.0"
  },
  "extensionsUsed": [
    "KHR_materials_clearcoat",
    "KHR_materials_specular"
  ],
  "scene": 0,
  "scenes": [
    {
      "name": "Scene",
      "nodes": [
        0
      ]
    }
  ],
  "nodes": [
    {
      "mesh": 0,
      "name": "Object_4",
      "rotation": [
        0.70710688829422,
        0,
        0,
        0.7071066498756409
      ]
    }
  ],
  "materials": [
    {
      "doubleSided": true,
      "extensions": {
        "KHR_materials_specular": {
          "specularFactor": 0.10000000149011612
        }
      },
      "name": "05_-_Default",
      "pbrMetallicRoughness": {
        "baseColorTexture": {
          "index": 0
        },
        "metallicFactor": 0,
        "roughnessFactor": 0.8999999761581421
      }
    },
    {
      "doubleSided": true,
      "extensions": {
        "KHR_materials_clearcoat": {
          "clearcoatFactor": 1,
          "clearcoatRoughnessFactor": 0.03999999910593033
        }
      },
      "name": "rims_chromes",
      "pbrMetallicRoughness": {
        "baseColorTexture": {
          "index": 1
        },
        "metallicFactor": 0,
        "roughnessFactor": 0.8775259852409363
      }
    },
    {
      "doubleSided": true,
      "extensions": {
        "KHR_materials_specular": {
          "specularFactor": 0.20000000298023224
        }
      },
      "name": "19_-_Default",
      "pbrMetallicRoughness": {
        "baseColorTexture": {
          "index": 2
        },
        "metallicFactor": 0.6080018281936646,
        "roughnessFactor": 0.4068583846092224
      }
    },
    {
      "doubleSided": true,
      "extensions": {
        "KHR_materials_specular": {
          "specularFactor": 0.20000000298023224
        }
      },
      "name": "04_-_Default",
      "pbrMetallicRoughness": {
        "baseColorTexture": {
          "index": 3
        },
        "metallicFactor": 0,
        "roughnessFactor": 0.8999999761581421
      }
    },
    {
      "doubleSided": true,
      "name": "03_-_Default",
      "pbrMetallicRoughness": {
        "baseColorTexture": {
          "index": 4
        },
        "metallicFactor": 0,
        "roughnessFactor": 0.20571491122245789
      }
    },
    {
      "doubleSided": true,
      "extensions": {
        "KHR_materials_clearcoat": {
          "clearcoatFactor": 1,
          "clearcoatRoughnessFactor": 0.03999999910593033
        },
        "KHR_materials_specular": {
          "specularTexture": {
            "index": 5
          }
        }
      },
      "name": "01_-_Default",
      "pbrMetallicRoughness": {
        "baseColorTexture": {
          "index": 6
        },
        "roughnessFactor": 0.3276200592517853
      }
    },
    {
      "alphaMode": "BLEND",
      "doubleSided": true,
      "extensions": {
        "KHR_materials_clearcoat": {
          "clearcoatFactor": 1,
          "clearcoatRoughnessFactor": 0.03999999910593033
        }
      },
      "name": "06_-_Default",
      "pbrMetallicRoughness": {
        "baseColorFactor": [
          1,
          1,
          1,
          0.14476235210895538
        ],
        "baseColorTexture": {
          "index": 7
        },
        "metallicFactor": 0,
        "roughnessFactor": 0.3291800022125244
      }
    },
    {
      "doubleSided": true,
      "extensions": {
        "KHR_materials_specular": {
          "specularFactor": 0.10000000149011612
        }
      },
      "name": "20_-_Default",
      "pbrMetallicRoughness": {
        "baseColorTexture": {
          "index": 8
        },
        "metallicFactor": 0,
        "roughnessFactor": 0.8999999761581421
      }
    },
    {
      "doubleSided": true,
      "name": "08_-_Default",
      "pbrMetallicRoughness": {
        "baseColorTexture": {
          "index": 9
        },
        "metallicFactor": 0,
        "roughnessFactor": 0.8999999761581421
      }
    },
    {
      "doubleSided": true,
      "extensions": {
        "KHR_materials_specular": {
          "specularFactor": 0.10000000149011612
        }
      },
      "name": "11_-_Default",
      "pbrMetallicRoughness": {
        "baseColorTexture": {
          "index": 10
        },
        "metallicFactor": 0,
        "roughnessFactor": 0.8999999761581421
      }
    },
    {
      "doubleSided": true,
      "name": "09_-_Default",
      "pbrMetallicRoughness": {
        "baseColorTexture": {
          "index": 11
        },
        "metallicFactor": 0,
        "roughnessFactor": 0.7354249954223633
      }
    },
    {
      "doubleSided": true,
      "extensions": {
        "KHR_materials_specular": {
          "specularFactor": 0.10000000149011612
        }
      },
      "name": "10_-_Default",
      "pbrMetallicRoughness": {
        "baseColorTexture": {
          "index": 12
        },
        "metallicFactor": 0,
        "roughnessFactor": 0.8999999761581421
      }
    },
    {
      "doubleSided": true,
      "extensions": {
        "KHR_materials_specular": {
          "specularFactor": 0.10000000149011612
        }
      },
      "name": "INT_DETAILS_PLASTIC_NM.001",
      "pbrMetallicRoughness": {
        "baseColorTexture": {
          "index": 13
        },
        "metallicFactor": 0,
        "roughnessFactor": 0.8999999761581421
      }
    },
    {
      "doubleSided": true,
      "name": "INT_LED.001",
      "pbrMetallicRoughness": {
        "baseColorTexture": {
          "index": 14
        },
        "metallicFactor": 0,
        "roughnessFactor": 0.8999999761581421
      }
    },
    {
      "doubleSided": true,
      "extensions": {
        "KHR_materials_specular": {
          "specularFactor": 0.30000001192092896
        }
      },
      "name": "INT_LCD.001",
      "pbrMetallicRoughness": {
        "baseColorTexture": {
          "index": 15
        },
        "metallicFactor": 0,
        "roughnessFactor": 0.745048999786377
      }
    },
    {
      "doubleSided": true,
      "name": "material_0",
      "pbrMetallicRoughness": {
        "metallicFactor": 0,
        "roughnessFactor": 0.6000000238418579
      }
    },
    {
      "alphaMode": "BLEND",
      "doubleSided": true,
      "extensions": {
        "KHR_materials_clearcoat": {
          "clearcoatFactor": 1,
          "clearcoatRoughnessFactor": 0.03999999910593033
        },
        "KHR_materials_specular": {
          "specularFactor": 0
        }
      },
      "name": "windows_int",
      "pbrMetallicRoughness": {
        "baseColorFactor": [
          1,
          1,
          1,
          0.4007631242275238
        ],
        "baseColorTexture": {
          "index": 16
        },
        "metallicFactor": 0,
        "roughnessFactor": 0.8999999761581421
      }
    }
  ],
  "meshes": [
    {
      "name": "Object_0",
      "primitives": [
        {
          "attributes": {
            "POSITION": 0,
            "NORMAL": 1,
            "TEXCOORD_0": 2
          },
          "indices": 5,
          "material": 0
        },
        {
          "attributes": {
            "POSITION": 6,
            "NORMAL": 7,
            "TEXCOORD_0": 8
          },
          "indices": 11,
          "material": 1
        },
        {
          "attributes": {
            "POSITION": 12,
            "NORMAL": 13,
            "TEXCOORD_0": 14
          },
          "indices": 17,
          "material": 2
        },
        {
          "attributes": {
            "POSITION": 18,
            "NORMAL": 19,
            "TEXCOORD_0": 20
          },
          "indices": 23,
          "material": 3
        },
        {
          "attributes": {
            "POSITION": 24,
            "NORMAL": 25,
            "TEXCOORD_0": 26
          },
          "indices": 29,
          "material": 4
        },
        {
          "attributes": {
            "POSITION": 30,
            "NORMAL": 31,
            "TEXCOORD_0": 32
          },
          "indices": 35,
          "material": 5
        },
        {
          "attributes": {
            "POSITION": 36,
            "NORMAL": 37,
            "TEXCOORD_0": 38
          },
          "indices": 41,
          "material": 6
        },
        {
          "attributes": {
            "POSITION": 42,
            "NORMAL": 43,
            "TEXCOORD_0": 44
          },
          "indices": 47,
          "material": 7
        },
        {
          "attributes": {
            "POSITION": 48,
            "NORMAL": 49,
            "TEXCOORD_0": 50
          },
          "indices": 53,
          "material": 8
        },
        {
          "attributes": {
            "POSITION": 54,
            "NORMAL": 55,
            "TEXCOORD_0": 56
          },
          "indices": 59,
          "material": 9
        },
        {
          "attributes": {
            "POSITION": 60,
            "NORMAL": 61,
            "TEXCOORD_0": 62
          },
          "indices": 65,
          "material": 10
        },
        {
          "attributes": {
            "POSITION": 66,
            "NORMAL": 67,
            "TEXCOORD_0": 68
          },
          "indices": 71,
          "material": 11
        },
        {
          "attributes": {
            "POSITION": 72,
            "NORMAL": 73,
            "TEXCOORD_0": 74
          },
          "indices": 77,
          "material": 12
        },
        {
          "attributes": {
            "POSITION": 78,
            "NORMAL": 79,
            "TEXCOORD_0": 80
          },
          "indices": 83,
          "material": 13
        },
        {
          "attributes": {
            "POSITION": 84,
            "NORMAL": 85,
            "TEXCOORD_0": 86
          },
          "indices": 89,
          "material": 14
        },
        {
          "attributes": {
            "POSITION": 90,
            "NORMAL": 91,
            "TEXCOORD_0": 92
          },
          "indices": 95,
          "material": 15
        },
        {
          "attributes": {
            "POSITION": 96,
            "NORMAL": 97,
            "TEXCOORD_0": 98
          },
          "indices": 101,
          "material": 16
        }
      ]
    }
  ],
  "textures": [
    {
      "sampler": 0,
      "source": 0
    },
    {
      "sampler": 0,
      "source": 1
    },
    {
      "sampler": 0,
      "source": 1
    },
    {
      "sampler": 0,
      "source": 2
    },
    {
      "sampler": 0,
      "source": 3
    },
    {
      "sampler": 0,
      "source": 4
    },
    {
      "sampler": 0,
      "source": 5
    },
    {
      "sampler": 0,
      "source": 6
    },
    {
      "sampler": 0,
      "source": 7
    },
    {
      "sampler": 0,
      "source": 8
    },
    {
      "sampler": 0,
      "source": 9
    },
    {
      "sampler": 0,
      "source": 10
    },
    {
      "sampler": 0,
      "source": 3
    },
    {
      "sampler": 0,
      "source": 11
    },
    {
      "sampler": 0,
      "source": 12
    },
    {
      "sampler": 0,
      "source": 13
    },
    {
      "sampler": 0,
      "source": 14
    }
  ],
  "images": [
    {
      "name": "Image_0",
      "uri": "toyota_supra_img0.png"
    },
    {
      "name": "Image_1",
      "uri": "toyota_supra_img1.png"
    },
    {
      "name": "Image_2",
      "uri": "toyota_supra_img2.png"
    },
    {
      "name": "Image_3",
      "uri": "toyota_supra_img3.png"
    },
    {
      "name": "Image_5",
      "uri": "toyota_supra_img4.png"
    },
    {
      "name": "Image_4",
      "uri": "toyota_supra_img5.png"
    },
    {
      "name": "Image_6",
      "uri": "toyota_supra_img6.png"
    },
    {
      "name": "Image_7",
      "uri": "toyota_supra_img7.png"
    },
    {
      "name": "Image_8",
      "uri": "toyota_supra_img8.png"
    },
    {
      "name": "Image_9",
      "uri": "toyota_supra_img9.png"
    },
    {
      "name": "Image_10",
      "uri": "toyota_supra_img10.png"
    },
    {
      "name": "Image_11",
      "uri": "toyota_supra_img11.png"
    },
    {
      "name": "Image_12",
      "uri": "toyota_supra_img12.png"
    },
    {
      "name": "Image_13",
      "uri": "toyota_supra_img13.png"
    },
    {
      "name": "Image_14",
      "uri": "toyota_supra_img14.png"
    }
  ],
  "accessors": [
    {
      "bufferView": 0,
      "componentType": 5126,
      "count": 13525,
      "max": [
        0.9888535737991333,
        1.8579460382461548,
        -0.07397755235433578
      ],
      "min": [
        -0.9899411201477051,
        -2.1202499866485596,
        -1.3978780508041382
      ],
      "type": "VEC3"
    },
    {
      "bufferView": 1,
      "componentType": 5126,
      "count": 13525,
      "type": "VEC3"
    },
    {
      "bufferView": 2,
      "componentType": 5126,
      "count": 13525,
      "type": "VEC2"
    },
    {
      "bufferView": 3,
      "componentType": 5126,
      "count": 13525,
      "type": "VEC2"
    },
    {
      "bufferView": 4,
      "componentType": 5126,
      "count": 13525,
      "type": "VEC2"
    },
    {
      "bufferView": 5,
      "componentType": 5123,
      "count": 62565,
      "type": "SCALAR"
    },
    {
      "bufferView": 6,
      "componentType": 5126,
      "count": 43642,
      "max": [
        0.9893450736999512,
        1.6893060207366943,
        -0.03998085856437683
      ],
      "min": [
        -0.9920074939727783,
        -1.4622420072555542,
        -0.6231625080108643
      ],
      "type": "VEC3"
    },
    {
      "bufferView": 7,
      "componentType": 5126,
      "count": 43642,
      "type": "VEC3"
    },
    {
      "bufferView": 8,
      "componentType": 5126,
      "count": 43642,
      "type": "VEC2"
    },
    {
      "bufferView": 9,
      "componentType": 5126,
      "count": 43642,
      "type": "VEC2"
    },
    {
      "bufferView": 10,
      "componentType": 5126,
      "count": 43642,
      "type": "VEC2"
    },
    {
      "bufferView": 11,
      "componentType": 5123,
      "count": 150027,
      "type": "SCALAR"
    },
    {
      "bufferView": 12,
      "componentType": 5126,
      "count": 9472,
      "max": [
        0.9946761131286621,
        1.7778270244598389,
        -0.004068226087838411
      ],
      "min": [
        -0.9958885908126831,
        -1.5505629777908325,
        -0.7128506898880005
      ],
      "type": "VEC3"
    },
    {
      "bufferView": 13,
      "componentType": 5126,
      "count": 9472,
      "type": "VEC3"
    },
    {
      "bufferView": 14,
      "componentType": 5126,
      "count": 9472,
      "type": "VEC2"
    },
    {
      "bufferView": 15,
      "componentType": 5126,
      "count": 9472,
      "type": "VEC2"
    },
    {
      "bufferView": 16,
      "componentType": 5126,
      "count": 9472,
      "type": "VEC2"
    },
    {
      "bufferView": 17,
      "componentType": 5123,
      "count": 30966,
      "type": "SCALAR"
    },
    {
      "bufferView": 18,
      "componentType": 5126,
      "count": 24231,
      "max": [
        1.030452013015747,
        2.40752911567688,
        -0.0436156801879406
      ],
      "min": [
        -1.031540036201477,
        -2.033371925354004,
        -1.1376019716262817
      ],
      "type": "VEC3"
    },
    {
      "bufferView": 19,
      "componentType": 5126,
      "count": 24231,
      "type": "VEC3"
    },
    {
      "bufferView": 20,
      "componentType": 5126,
      "count": 24231,
      "type": "VEC2"
    },
    {
      "bufferView": 21,
      "componentType": 5126,
      "count": 24231,
      "type": "VEC2"
    },
    {
      "bufferView": 22,
      "componentType": 5126,
      "count": 24231,
      "type": "VEC2"
    },
    {
      "bufferView": 23,
      "componentType": 5123,
      "count": 103407,
      "type": "SCALAR"
    },
    {
      "bufferView": 24,
      "componentType": 5126,
      "count": 18411,
      "max": [
        1.0012099742889404,
        2.3270740509033203,
        -0.052969980984926224
      ],
      "min": [
        -1.0023030042648315,
        -2.0684080123901367,
        -0.7471752166748047
      ],
      "type": "VEC3"
    },
    {
      "bufferView": 25,
      "componentType": 5126,
      "count": 18411,
      "type": "VEC3"
    },
    {
      "bufferView": 26,
      "componentType": 5126,
      "count": 18411,
      "type": "VEC2"
    },
    {
      "bufferView": 27,
      "componentType": 5126,
      "count": 18411,
      "type": "VEC2"
    },
    {
      "bufferView": 28,
      "componentType": 5126,
      "count": 18411,
      "type": "VEC2"
    },
    {
      "bufferView": 29,
      "componentType": 5123,
      "count": 78303,
      "type": "SCALAR"
    },
    {
      "bufferView": 30,
      "componentType": 5126,
      "count": 40880,
      "max": [
        1.0058879852294922,
        2.376171112060547,
        -0.07496959716081619
      ],
      "min": [
        -1.0069819688796997,
        -2.014185905456543,
        -1.2081079483032227
      ],
      "type": "VEC3"
    },
    {
      "bufferView": 31,
      "componentType": 5126,
      "count": 40880,
      "type": "VEC3"
    },
    {
      "bufferView": 32,
      "componentType": 5126,
      "count": 40880,
      "type": "VEC2"
    },
    {
      "bufferView": 33,
      "componentType": 5126,
      "count": 40880,
      "type": "VEC2"
    },
    {
      "bufferView": 34,
      "componentType": 5126,
      "count": 40880,
      "type": "VEC2"
    },
    {
      "bufferView": 35,
      "componentType": 5123,
      "count": 196032,
      "type": "SCALAR"
    },
    {
      "bufferView": 36,
      "componentType": 5126,
      "count": 755,
      "max": [
        0.8571810126304626,
        2.3097169399261475,
        -0.2782076895236969
      ],
      "min": [
        -0.8582655191421509,
        -1.9392869472503662,
        -0.6688663959503174
      ],
      "type": "VEC3"
    },
    {
      "bufferView": 37,
      "componentType": 5126,
      "count": 755,
      "type": "VEC3"
    },
    {
      "bufferView": 38,
      "componentType": 5126,
      "count": 755,
      "type": "VEC2"
    },
    {
      "bufferView": 39,
      "componentType": 5126,
      "count": 755,
      "type": "VEC2"
    },
    {
      "bufferView": 40,
      "componentType": 5126,
      "count": 755,
      "type": "VEC2"
    },
    {
      "bufferView": 41,
      "componentType": 5123,
      "count": 3906,
      "type": "SCALAR"
    },
    {
      "bufferView": 42,
      "componentType": 5126,
      "count": 23941,
      "max": [
        0.8798050284385681,
        1.6330939531326294,
        -0.1769205927848816
      ],
      "min": [
        -0.8684366941452026,
        -1.3752739429473877,
        -0.739403486251831
      ],
      "type": "VEC3"
    },
    {
      "bufferView": 43,
      "componentType": 5126,
      "count": 23941,
      "type": "VEC3"
    },
    {
      "bufferView": 44,
      "componentType": 5126,
      "count": 23941,
      "type": "VEC2"
    },
    {
      "bufferView": 45,
      "componentType": 5126,
      "count": 23941,
      "type": "VEC2"
    },
    {
      "bufferView": 46,
      "componentType": 5126,
      "count": 23941,
      "type": "VEC2"
    },
    {
      "bufferView": 47,
      "componentType": 5123,
      "count": 90612,
      "type": "SCALAR"
    },
    {
      "bufferView": 48,
      "componentType": 5126,
      "count": 26349,
      "max": [
        1.0115469694137573,
        2.345597982406616,
        -0.06893154233694077
      ],
      "min": [
        -1.0126760005950928,
        -1.9942189455032349,
        -1.1861629486083984
      ],
      "type": "VEC3"
    },
    {
      "bufferView": 49,
      "componentType": 5126,
      "count": 26349,
      "type": "VEC3"
    },
    {
      "bufferView": 50,
      "componentType": 5126,
      "count": 26349,
      "type": "VEC2"
    },
    {
      "bufferView": 51,
      "componentType": 5126,
      "count": 26349,
      "type": "VEC2"
    },
    {
      "bufferView": 52,
      "componentType": 5126,
      "count": 26349,
      "type": "VEC2"
    },
    {
      "bufferView": 53,
      "componentType": 5123,
      "count": 48027,
      "type": "SCALAR"
    },
    {
      "bufferView": 54,
      "componentType": 5126,
      "count": 40856,
      "max": [
        0.7100732922554016,
        0.8132194876670837,
        -0.0753178671002388
      ],
      "min": [
        -0.66965252161026,
        -0.9966983199119568,
        -1.117663025856018
      ],
      "type": "VEC3"
    },
    {
      "bufferView": 55,
      "componentType": 5126,
      "count": 40856,
      "type": "VEC3"
    },
    {
      "bufferView": 56,
      "componentType": 5126,
      "count": 40856,
      "type": "VEC2"
    },
    {
      "bufferView": 57,
      "componentType": 5126,
      "count": 40856,
      "type": "VEC2"
    },
    {
      "bufferView": 58,
      "componentType": 5126,
      "count": 40856,
      "type": "VEC2"
    },
    {
      "bufferView": 59,
      "componentType": 5123,
      "count": 167817,
      "type": "SCALAR"
    },
    {
      "bufferView": 60,
      "componentType": 5126,
      "count": 10036,
      "max": [
        0.7357509732246399,
        0.8263090252876282,
        -0.10472770035266876
      ],
      "min": [
        -0.734382688999176,
        -1.62322998046875,
        -1.124230980873108
      ],
      "type": "VEC3"
    },
    {
      "bufferView": 61,
      "componentType": 5126,
      "count": 10036,
      "type": "VEC3"
    },
    {
      "bufferView": 62,
      "componentType": 5126,
      "count": 10036,
      "type": "VEC2"
    },
    {
      "bufferView": 63,
      "componentType": 5126,
      "count": 10036,
      "type": "VEC2"
    },
    {
      "bufferView": 64,
      "componentType": 5126,
      "count": 10036,
      "type": "VEC2"
    },
    {
      "bufferView": 65,
      "componentType": 5123,
      "count": 38148,
      "type": "SCALAR"
    },
    {
      "bufferView": 66,
      "componentType": 5126,
      "count": 17462,
      "max": [
        0.9337608814239502,
        0.8131545782089233,
        -0.07964113354682922
      ],
      "min": [
        -0.9348592758178711,
        -1.8606979846954346,
        -1.1929810047149658
      ],
      "type": "VEC3"
    },
    {
      "bufferView": 67,
      "componentType": 5126,
      "count": 17462,
      "type": "VEC3"
    },
    {
      "bufferView": 68,
      "componentType": 5126,
      "count": 17462,
      "type": "VEC2"
    },
    {
      "bufferView": 69,
      "componentType": 5126,
      "count": 17462,
      "type": "VEC2"
    },
    {
      "bufferView": 70,
      "componentType": 5126,
      "count": 17462,
      "type": "VEC2"
    },
    {
      "bufferView": 71,
      "componentType": 5123,
      "count": 81618,
      "type": "SCALAR"
    },
    {
      "bufferView": 72,
      "componentType": 5126,
      "count": 2486,
      "max": [
        -0.2899543046951294,
        0.37554121017456055,
        -0.7154054045677185
      ],
      "min": [
        -0.5081309080123901,
        0.34479770064353943,
        -0.8490983843803406
      ],
      "type": "VEC3"
    },
    {
      "bufferView": 73,
      "componentType": 5126,
      "count": 2486,
      "type": "VEC3"
    },
    {
      "bufferView": 74,
      "componentType": 5126,
      "count": 2486,
      "type": "VEC2"
    },
    {
      "bufferView": 75,
      "componentType": 5126,
      "count": 2486,
      "type": "VEC2"
    },
    {
      "bufferView": 76,
      "componentType": 5126,
      "count": 2486,
      "type": "VEC2"
    },
    {
      "bufferView": 77,
      "componentType": 5123,
      "count": 8736,
      "type": "SCALAR"
    },
    {
      "bufferView": 78,
      "componentType": 5126,
      "count": 461,
      "max": [
        -0.2972007095813751,
        0.35266339778900146,
        -0.762588620185852
      ],
      "min": [
        -0.5004634857177734,
        0.3486863076686859,
        -0.8411046266555786
      ],
      "type": "VEC3"
    },
    {
      "bufferView": 79,
      "componentType": 5126,
      "count": 461,
      "type": "VEC3"
    },
    {
      "bufferView": 80,
      "componentType": 5126,
      "count": 461,
      "type": "VEC2"
    },
    {
      "bufferView": 81,
      "componentType": 5126,
      "count": 461,
      "type": "VEC2"
    },
    {
      "bufferView": 82,
      "componentType": 5126,
      "count": 461,
      "type": "VEC2"
    },
    {
      "bufferView": 83,
      "componentType": 5123,
      "count": 933,
      "type": "SCALAR"
    },
    {
      "bufferView": 84,
      "componentType": 5126,
      "count": 198,
      "max": [
        -0.3206388056278229,
        0.3553586006164551,
        -0.7304779291152954
      ],
      "min": [
        -0.4770246148109436,
        0.35156020522117615,
        -0.8200368881225586
      ],
      "type": "VEC3"
    },
    {
      "bufferView": 85,
      "componentType": 5126,
      "count": 198,
      "type": "VEC3"
    },
    {
      "bufferView": 86,
      "componentType": 5126,
      "count": 198,
      "type": "VEC2"
    },
    {
      "bufferView": 87,
      "componentType": 5126,
      "count": 198,
      "type": "VEC2"
    },
    {
      "bufferView": 88,
      "componentType": 5126,
      "count": 198,
      "type": "VEC2"
    },
    {
      "bufferView": 89,
      "componentType": 5123,
      "count": 546,
      "type": "SCALAR"
    },
    {
      "bufferView": 90,
      "componentType": 5126,
      "count": 150,
      "max": [
        0.963444709777832,
        0.4728463888168335,
        -0.6506093740463257
      ],
      "min": [
        -0.9645330905914307,
        0.2757152020931244,
        -0.8957679271697998
      ],
      "type": "VEC3"
    },
    {
      "bufferView": 91,
      "componentType": 5126,
      "count": 150,
      "type": "VEC3"
    },
    {
      "bufferView": 92,
      "componentType": 5126,
      "count": 150,
      "type": "VEC2"
    },
    {
      "bufferView": 93,
      "componentType": 5126,
      "count": 150,
      "type": "VEC2"
    },
    {
      "bufferView": 94,
      "componentType": 5126,
      "count": 150,
      "type": "VEC2"
    },
    {
      "bufferView": 95,
      "componentType": 5123,
      "count": 498,
      "type": "SCALAR"
    },
    {
      "bufferView": 96,
      "componentType": 5126,
      "count": 1945,
      "max": [
        0.7634660005569458,
        0.7541326284408569,
        -0.8072798252105713
      ],
      "min": [
        -0.7645553946495056,
        -1.692878007888794,
        -1.129431962966919
      ],
      "type": "VEC3"
    },
    {
      "bufferView": 97,
      "componentType": 5126,
      "count": 1945,
      "type": "VEC3"
    },
    {
      "bufferView": 98,
      "componentType": 5126,
      "count": 1945,
      "type": "VEC2"
    },
    {
      "bufferView": 99,
      "componentType": 5126,
      "count": 1945,
      "type": "VEC2"
    },
    {
      "bufferView": 100,
      "componentType": 5126,
      "count": 1945,
      "type": "VEC2"
    },
    {
      "bufferView": 101,
      "componentType": 5123,
      "count": 9141,
      "type": "SCALAR"
    }
  ],
  "bufferViews": [
    {
      "buffer": 0,
      "byteLength": 162300,
      "byteOffset": 0,
      "target": 34962
    },
    {
      "buffer": 0,
      "byteLength": 162300,
      "byteOffset": 162300,
      "target": 34962
    },
    {
      "buffer": 0,
      "byteLength": 108200,
      "byteOffset": 324600,
      "target": 34962
    },
    {
      "buffer": 0,
      "byteLength": 108200,
      "byteOffset": 432800,
      "target": 34962
    },
    {
      "buffer": 0,
      "byteLength": 108200,
      "byteOffset": 541000,
      "target": 34962
    },
    {
      "buffer": 0,
      "byteLength": 125132,
      "byteOffset": 649200,
      "target": 34963
    },
    {
      "buffer": 0,
      "byteLength": 523704,
      "byteOffset": 774332,
      "target": 34962
    },
    {
      "buffer": 0,
      "byteLength": 523704,
      "byteOffset": 1298036,
      "target": 34962
    },
    {
      "buffer": 0,
      "byteLength": 349136,
      "byteOffset": 1821740,
      "target": 34962
    },
    {
      "buffer": 0,
      "byteLength": 349136,
      "byteOffset": 2170876,
      "target": 34962
    },
    {
      "buffer": 0,
      "byteLength": 349136,
      "byteOffset": 2520012,
      "target": 34962
    },
    {
      "buffer": 0,
      "byteLength": 300056,
      "byteOffset": 2869148,
      "target": 34963
    },
    {
      "buffer": 0,
      "byteLength": 113664,
      "byteOffset": 3169204,
      "target": 34962
    },
    {
      "buffer": 0,
      "byteLength": 113664,
      "byteOffset": 3282868,
      "target": 34962
    },
    {
      "buffer": 0,
      "byteLength": 75776,
      "byteOffset": 3396532,
      "target": 34962
    },
    {
      "buffer": 0,
      "byteLength": 75776,
      "byteOffset": 3472308,
      "target": 34962
    },
    {
      "buffer": 0,
      "byteLength": 75776,
      "byteOffset": 3548084,
      "target": 34962
    },
    {
      "buffer": 0,
      "byteLength": 61932,
      "byteOffset": 3623860,
      "target": 34963
    },
    {
      "buffer": 0,
      "byteLength": 290772,
      "byteOffset": 3685792,
      "target": 34962
    },
    {
      "buffer": 0,
      "byteLength": 290772,
      "byteOffset": 3976564,
      "target": 34962
    },
    {
      "buffer": 0,
      "byteLength": 193848,
      "byteOffset": 4267336,
      "target": 34962
    },
    {
      "buffer": 0,
      "byteLength": 193848,
      "byteOffset": 4461184,
      "target": 34962
    },
    {
      "buffer": 0,
      "byteLength": 193848,
      "byteOffset": 4655032,
      "target": 34962
    },
    {
      "buffer": 0,
      "byteLength": 206816,
      "byteOffset": 4848880,
      "target": 34963
    },
    {
      "buffer": 0,
      "byteLength": 220932,
      "byteOffset": 5055696,
      "target": 34962
    },
    {
      "buffer": 0,
      "byteLength": 220932,
      "byteOffset": 5276628,
      "target": 34962
    },
    {
      "buffer": 0,
      "byteLength": 147288,
      "byteOffset": 5497560,
      "target": 34962
    },
    {
      "buffer": 0,
      "byteLength": 147288,
      "byteOffset": 5644848,
      "target": 34962
    },
    {
      "buffer": 0,
      "byteLength": 147288,
      "byteOffset": 5792136,
      "target": 34962
    },
    {
      "buffer": 0,
      "byteLength": 156608,
      "byteOffset": 5939424,
      "target": 34963
    },
    {
      "buffer": 0,
      "byteLength": 490560,
      "byteOffset": 6096032,
      "target": 34962
    },
    {
      "buffer": 0,
      "byteLength": 490560,
      "byteOffset": 6586592,
      "target": 34962
    },
    {
      "buffer": 0,
      "byteLength": 327040,
      "byteOffset": 7077152,
      "target": 34962
    },
    {
      "buffer": 0,
      "byteLength": 327040,
      "byteOffset": 7404192,
      "target": 34962
    },
    {
      "buffer": 0,
      "byteLength": 327040,
      "byteOffset": 7731232,
      "target": 34962
    },
    {
      "buffer": 0,
      "byteLength": 392064,
      "byteOffset": 8058272,
      "target": 34963
    },
    {
      "buffer": 0,
      "byteLength": 9060,
      "byteOffset": 8450336,
      "target": 34962
    },
    {
      "buffer": 0,
      "byteLength": 9060,
      "byteOffset": 8459396,
      "target": 34962
    },
    {
      "buffer": 0,
      "byteLength": 6040,
      "byteOffset": 8468456,
      "target": 34962
    },
    {
      "buffer": 0,
      "byteLength": 6040,
      "byteOffset": 8474496,
      "target": 34962
    },
    {
      "buffer": 0,
      "byteLength": 6040,
      "byteOffset": 8480536,
      "target": 34962
    },
    {
      "buffer": 0,
      "byteLength": 7812,
      "byteOffset": 8486576,
      "target": 34963
    },
    {
      "buffer": 0,
      "byteLength": 287292,
      "byteOffset": 8494388,
      "target": 34962
    },
    {
      "buffer": 0,
      "byteLength": 287292,
      "byteOffset": 8781680,
      "target": 34962
    },
    {
      "buffer": 0,
      "byteLength": 191528,
      "byteOffset": 9068972,
      "target": 34962
    },
    {
      "buffer": 0,
      "byteLength": 191528,
      "byteOffset": 9260500,
      "target": 34962
    },
    {
      "buffer": 0,
      "byteLength": 191528,
      "byteOffset": 9452028,
      "target": 34962
    },
    {
      "buffer": 0,
      "byteLength": 181224,
      "byteOffset": 9643556,
      "target": 34963
    },
    {
      "buffer": 0,
      "byteLength": 316188,
      "byteOffset": 9824780,
      "target": 34962
    },
    {
      "buffer": 0,
      "byteLength": 316188,
      "byteOffset": 10140968,
      "target": 34962
    },
    {
      "buffer": 0,
      "byteLength": 210792,
      "byteOffset": 10457156,
      "target": 34962
    },
    {
      "buffer": 0,
      "byteLength": 210792,
      "byteOffset": 10667948,
      "target": 34962
    },
    {
      "buffer": 0,
      "byteLength": 210792,
      "byteOffset": 10878740,
      "target": 34962
    },
    {
      "buffer": 0,
      "byteLength": 96056,
      "byteOffset": 11089532,
      "target": 34963
    },
    {
      "buffer": 0,
      "byteLength": 490272,
      "byteOffset": 11185588,
      "target": 34962
    },
    {
      "buffer": 0,
      "byteLength": 490272,
      "byteOffset": 11675860,
      "target": 34962
    },
    {
      "buffer": 0,
      "byteLength": 326848,
      "byteOffset": 12166132,
      "target": 34962
    },
    {
      "buffer": 0,
      "byteLength": 326848,
      "byteOffset": 12492980,
      "target": 34962
    },
    {
      "buffer": 0,
      "byteLength": 326848,
      "byteOffset": 12819828,
      "target": 34962
    },
    {
      "buffer": 0,
      "byteLength": 335636,
      "byteOffset": 13146676,
      "target": 34963
    },
    {
      "buffer": 0,
      "byteLength": 120432,
      "byteOffset": 13482312,
      "target": 34962
    },
    {
      "buffer": 0,
      "byteLength": 120432,
      "byteOffset": 13602744,
      "target": 34962
    },
    {
      "buffer": 0,
      "byteLength": 80288,
      "byteOffset": 13723176,
      "target": 34962
    },
    {
      "buffer": 0,
      "byteLength": 80288,
      "byteOffset": 13803464,
      "target": 34962
    },
    {
      "buffer": 0,
      "byteLength": 80288,
      "byteOffset": 13883752,
      "target": 34962
    },
    {
      "buffer": 0,
      "byteLength": 76296,
      "byteOffset": 13964040,
      "target": 34963
    },
    {
      "buffer": 0,
      "byteLength": 209544,
      "byteOffset": 14040336,
      "target": 34962
    },
    {
      "buffer": 0,
      "byteLength": 209544,
      "byteOffset": 14249880,
      "target": 34962
    },
    {
      "buffer": 0,
      "byteLength": 139696,
      "byteOffset": 14459424,
      "target": 34962
    },
    {
      "buffer": 0,
      "byteLength": 139696,
      "byteOffset": 14599120,
      "target": 34962
    },
    {
      "buffer": 0,
      "byteLength": 139696,
      "byteOffset": 14738816,
      "target": 34962
    },
    {
      "buffer": 0,
      "byteLength": 163236,
      "byteOffset": 14878512,
      "target": 34963
    },
    {
      "buffer": 0,
      "byteLength": 29832,
      "byteOffset": 15041748,
      "target": 34962
    },
    {
      "buffer": 0,
      "byteLength": 29832,
      "byteOffset": 15071580,
      "target": 34962
    },
    {
      "buffer": 0,
      "byteLength": 19888,
      "byteOffset": 15101412,
      "target": 34962
    },
    {
      "buffer": 0,
      "byteLength": 19888,
      "byteOffset": 15121300,
      "target": 34962
    },
    {
      "buffer": 0,
      "byteLength": 19888,
      "byteOffset": 15141188,
      "target": 34962
    },
    {
      "buffer": 0,
      "byteLength": 17472,
      "byteOffset": 15161076,
      "target": 34963
    },
    {
      "buffer": 0,
      "byteLength": 5532,
      "byteOffset": 15178548,
      "target": 34962
    },
    {
      "buffer": 0,
      "byteLength": 5532,
      "byteOffset": 15184080,
      "target": 34962
    },
    {
      "buffer": 0,
      "byteLength": 3688,
      "byteOffset": 15189612,
      "target": 34962
    },
    {
      "buffer": 0,
      "byteLength": 3688,
      "byteOffset": 15193300,
      "target": 34962
    },
    {
      "buffer": 0,
      "byteLength": 3688,
      "byteOffset": 15196988,
      "target": 34962
    },
    {
      "buffer": 0,
      "byteLength": 1868,
      "byteOffset": 15200676,
      "target": 34963
    },
    {
      "buffer": 0,
      "byteLength": 2376,
      "byteOffset": 15202544,
      "target": 34962
    },
    {
      "buffer": 0,
      "byteLength": 2376,
      "byteOffset": 15204920,
      "target": 34962
    },
    {
      "buffer": 0,
      "byteLength": 1584,
      "byteOffset": 15207296,
      "target": 34962
    },
    {
      "buffer": 0,
      "byteLength": 1584,
      "byteOffset": 15208880,
      "target": 34962
    },
    {
      "buffer": 0,
      "byteLength": 1584,
      "byteOffset": 15210464,
      "target": 34962
    },
    {
      "buffer": 0,
      "byteLength": 1092,
      "byteOffset": 15212048,
      "target": 34963
    },
    {
      "buffer": 0,
      "byteLength": 1800,
      "byteOffset": 15213140,
      "target": 34962
    },
    {
      "buffer": 0,
      "byteLength": 1800,
      "byteOffset": 15214940,
      "target": 34962
    },
    {
      "buffer": 0,
      "byteLength": 1200,
      "byteOffset": 15216740,
      "target": 34962
    },
    {
      "buffer": 0,
      "byteLength": 1200,
      "byteOffset": 15217940,
      "target": 34962
    },
    {
      "buffer": 0,
      "byteLength": 1200,
      "byteOffset": 15219140,
      "target": 34962
    },
    {
      "buffer": 0,
      "byteLength": 996,
      "byteOffset": 15220340,
      "target": 34963
    },
    {
      "buffer": 0,
      "byteLength": 23340,
      "byteOffset": 15221336,
      "target": 34962
    },
    {
      "buffer": 0,
      "byteLength": 23340,
      "byteOffset": 15244676,
      "target": 34962
    },
    {
      "buffer": 0,
      "byteLength": 15560,
      "byteOffset": 15268016,
      "target": 34962
    },
    {
      "buffer": 0,
      "byteLength": 15560,
      "byteOffset": 15283576,
      "target": 34962
    },
    {
      "buffer": 0,
      "byteLength": 15560,
      "byteOffset": 15299136,
      "target": 34962
    },
    {
      "buffer": 0,
      "byteLength": 18284,
      "byteOffset": 15314696,
      "target": 34963
    }
  ],
  "samplers": [
    {
      "magFilter": 9729,
      "minFilter": 9987
    }
  ],
  "buffers": [
    {
      "uri": "toyota_supra_data.bin",
      "byteLength": 15332980
    }
  ]
}